<svg id="eoUhsNdlP5p1" xmlns="http://www.w3.org/2000/svg" xmlns:xlink="http://www.w3.org/1999/xlink" viewBox="0 0 128 128" shape-rendering="geometricPrecision" text-rendering="geometricPrecision" project-id="2816a6ab06734bf6a5e4e19287846db4" export-id="620216013bb34336a4afa4d56becd63d" cached="false"><ellipse rx="64" ry="64" transform="translate(64 64)" fill="#e72564" stroke-width="0"/><path d="M6.25,3h2.5v2.5h-2.5v6.25c0,1.380711-1.119289,2.5-2.5,2.5c1.380711,0,2.5,1.119289,2.5,2.5v6.25h2.5v2.5h-2.5c-1.3375-.3375-2.5-1.125-2.5-2.5v-5c0-1.380711-1.119289-2.5-2.5-2.5h-1.25L0,13h1.25c1.380711,0,2.5-1.119289,2.5-2.5v-5C3.75,4.119289,4.869289,3,6.25,3m17.5,0c1.380711,0,2.5,1.119289,2.5,2.5v5c0,1.380711,1.119289,2.5,2.5,2.5h1.25v2.5h-1.25c-1.380711,0-2.5,1.119289-2.5,2.5v5c0,1.380711-1.119289,2.5-2.5,2.5h-2.5v-2.5h2.5v-6.25c0-1.380711,1.119289-2.5,2.5-2.5-1.380711,0-2.5-1.119289-2.5-2.5v-6.25h-2.5v-2.5h2.5M15,18c.690356,0,1.25.559644,1.25,1.25s-.559644,1.25-1.25,1.25-1.25-.559644-1.25-1.25.559644-1.25,1.25-1.25m-5,0c.690356,0,1.25.559644,1.25,1.25s-.559644,1.25-1.25,1.25-1.25-.559644-1.25-1.25.559644-1.25,1.25-1.25m10,0c.690356,0,1.25.559644,1.25,1.25s-.559644,1.25-1.25,1.25-1.25-.559644-1.25-1.25.559644-1.25,1.25-1.25Z" transform="translate(9.977117 49.75)" fill="#fff"/><path d="M1,9.929369c0-.394521.319777-.714344.71424-.714344h16.846067L14.06488,4.720371c-.279281-.279321-.279281-.73219,0-1.011511s.732083-.279322,1.011364,0l5.713921,5.714753C20.924502,9.55763,21,9.7396,21,9.929369s-.075498.371739-.209835.505755l-5.713921,5.714754c-.279281.279321-.732083.279321-1.011364,0s-.279281-.73219,0-1.011512l4.495427-4.494653h-16.846067C1.319777,10.643713,1,10.32389,1,9.929369" transform="translate(53 54.070631)" fill="#fff" fill-rule="evenodd"/><path d="M25.761759,18.592323l-4.573678-6.342206L13.784778,1.983225c-.376274-.518967-1.244516-.518967-1.618628,0L4.765009,12.247955L0.188087,18.592323c-.185318.258321-.236772.589357-.138605.891735s.33426.540074.635979.640298l11.978063,3.920361h.002162c.200921.065712.417553.065712.618474,0h.002162l11.976981-3.920361c.302749-.099469.540624-.335166.637936-.640059.099313-.302628.047006-.634549-.140562-.891974h.002162-.001081ZM12.976004,4.271003l4.80074,6.657911-4.489341-1.470406c-.0346-.010812-.071362-.008649-.105962-.017299-.034217-.007868-.068881-.013645-.1038-.017299-.0346-.004325-.067037-.017299-.101637-.017299s-.067037.012974-.101637.017299c-.034942.003482-.069617.009261-.1038.017299-.0346.006487-.071362.006487-.1038.017299L8.20662,10.921346l-.028112.008649l4.80074-6.657911h-.002162l-.001081-.001081ZM6.193337,13.677276l5.226752-1.711509.557924-.181638v9.936051l-9.372256-3.06731l3.586499-4.973431.001081-.002162Zm7.78174,8.040741v-9.932807l5.784675,1.894229l3.585418,4.971269-9.370093,3.068391v-.001081Z" transform="translate(89.999388 51.155998)" fill="#fff"/></svg>
